<svg xmlns="http://www.w3.org/2000/svg" viewBox="0 0 1110.44 199.08"><defs><style>.cls-1{isolation:isolate;}.cls-2,.cls-3,.cls-4{fill:#f97b2b;}.cls-3{opacity:0.46;mix-blend-mode:multiply;}.cls-4{font-size:62.28px;font-family:MartelSans-Black, Martel Sans;font-weight:800;letter-spacing:0.08em;}</style></defs><g class="cls-1"><g id="OBJECTS"><path class="cls-2" d="M27.53,184,7.73,312.65H39.59L33.35,184.32A2.93,2.93,0,0,0,27.53,184Z" transform="translate(-7.73 -113.57)"/><path class="cls-2" d="M175.32,245.71,162.1,164.13a10.44,10.44,0,0,0-10.31-8.78H141.7V137.78a24.24,24.24,0,0,0-24.21-24.21H86.35a24.24,24.24,0,0,0-24.21,24.21v17.57H50.92a10.44,10.44,0,0,0-10.41,11.3L51.43,301.49l.9,11.16H186.18Zm-37.68-78.94a7.68,7.68,0,1,1-7.68,7.67A7.67,7.67,0,0,1,137.64,166.77ZM137.18,252l-14.74,14.82L104.64,249l-4.51,15.6a3.83,3.83,0,0,1-7.44-.32l-9.43-47.09a3.84,3.84,0,0,1,4.52-4.53l46.78,9.45a3.87,3.87,0,0,1,.3,7.5l-15.52,4.51ZM71.06,137.78a15.31,15.31,0,0,1,15.29-15.29h31.14a15.3,15.3,0,0,1,15.28,15.29v17.57H71.06Zm-4.46,29a7.68,7.68,0,1,1-7.69,7.67A7.67,7.67,0,0,1,66.6,166.77Z" transform="translate(-7.73 -113.57)"/><path class="cls-3" d="M33.35,184.32l6.24,128.33H7.73L27.53,184A2.93,2.93,0,0,1,33.35,184.32Z" transform="translate(-7.73 -113.57)"/></g><g id="TEXTS"><text class="cls-4" transform="translate(221.54 133.52)">CARRINHO DE COMPRAS</text></g></g></svg>