
<svg xmlns="http://www.w3.org/2000/svg" xmlns:xlink="http://www.w3.org/1999/xlink" viewBox="0 0 729.53 199.08"><defs><style>.cls-1{isolation:isolate;}.cls-2{fill:url(#Degradado_sin_nombre_67);}.cls-3{fill:url(#Degradado_sin_nombre_67-2);}.cls-4{opacity:0.46;mix-blend-mode:multiply;fill:url(#Degradado_sin_nombre_5);}.cls-5{font-size:62.28px;fill:#fff;font-family:MartelSans-Black, Martel Sans;font-weight:800;letter-spacing:0.05em;}</style><linearGradient id="Degradado_sin_nombre_67" x1="94.48" y1="122.11" x2="10.99" y2="294.86" gradientUnits="userSpaceOnUse"><stop offset="0" stop-color="#ff8f18"/><stop offset="0.52" stop-color="#e0277b"/><stop offset="1" stop-color="#7f53f5"/></linearGradient><linearGradient id="Degradado_sin_nombre_67-2" x1="155.17" y1="151.44" x2="71.68" y2="324.19" xlink:href="#Degradado_sin_nombre_67"/><linearGradient id="Degradado_sin_nombre_5" x1="21.78" y1="304.1" x2="52.01" y2="160.86" gradientUnits="userSpaceOnUse"><stop offset="0" stop-color="#4b116e"/><stop offset="1" stop-color="#3f1170" stop-opacity="0"/></linearGradient></defs><g class="cls-1"><g id="OBJECTS"><path class="cls-2" d="M27.53,184,7.73,312.65H39.59L33.35,184.32A2.93,2.93,0,0,0,27.53,184Z" transform="translate(-7.73 -113.57)"/><path class="cls-3" d="M175.32,245.71,162.1,164.13a10.44,10.44,0,0,0-10.31-8.78H141.7V137.78a24.24,24.24,0,0,0-24.21-24.21H86.35a24.24,24.24,0,0,0-24.21,24.21v17.57H50.92a10.44,10.44,0,0,0-10.41,11.3L51.43,301.49l.9,11.16H186.18Zm-37.68-78.94a7.68,7.68,0,1,1-7.68,7.67A7.67,7.67,0,0,1,137.64,166.77ZM137.18,252l-14.74,14.82L104.64,249l-4.51,15.6a3.83,3.83,0,0,1-7.44-.32l-9.43-47.09a3.84,3.84,0,0,1,4.52-4.53l46.78,9.45a3.87,3.87,0,0,1,.3,7.5l-15.52,4.51ZM71.06,137.78a15.31,15.31,0,0,1,15.29-15.29h31.14a15.3,15.3,0,0,1,15.28,15.29v17.57H71.06Zm-4.46,29a7.68,7.68,0,1,1-7.69,7.67A7.67,7.67,0,0,1,66.6,166.77Z" transform="translate(-7.73 -113.57)"/><path class="cls-4" d="M33.35,184.32l6.24,128.33H7.73L27.53,184A2.93,2.93,0,0,1,33.35,184.32Z" transform="translate(-7.73 -113.57)"/></g><g id="TEXTS"><text class="cls-5" transform="translate(205.55 136.21)">MARKETPLACE </text></g></g></svg>
